HIERARCHY
ROOT Hips
{
	OFFSET	0	0	0
	CHANNELS 6  Xposition Yposition Zposition Xrotation Yrotation Zrotation
	JOINT Spine
	{
		OFFSET	0	7.07069	1.42098
		CHANNELS 3  Xrotation Yrotation Zrotation
		JOINT Spine1
		{
			OFFSET	0	12.118	-2.16393
			CHANNELS 3  Xrotation Yrotation Zrotation
			JOINT Spine2
			{
				OFFSET	0	9.18588	0.984588
				CHANNELS 3  Xrotation Yrotation Zrotation
				JOINT Spine3
				{
					OFFSET	0	10.9928	3.26753
					CHANNELS 3  Xrotation Yrotation Zrotation
					JOINT Spine4
					{
						OFFSET	0	16.2728	-1.66623
						CHANNELS 3  Xrotation Yrotation Zrotation
						JOINT Neck
						{
							OFFSET	0	7.76851	-5.44228
							CHANNELS 3  Xrotation Yrotation Zrotation
							JOINT Head
							{
								OFFSET	0	9.32654	-2.79147
								CHANNELS 3  Xrotation Yrotation Zrotation
								End Site
								{
									OFFSET	0	19.4537	-0.941309
								}
							}
						}
					}
					JOINT LeftShoulder
					{
						OFFSET	-4.67409	19.7783	-9.32654
						CHANNELS 3  Xrotation Yrotation Zrotation
						JOINT LeftArm
						{
							OFFSET	-10.1845	-2.79147	3.58132
							CHANNELS 3  Xrotation Yrotation Zrotation
							JOINT LeftForeArm
							{
								OFFSET	-31.5067	-1.43802	2.24891
								CHANNELS 3  Xrotation Yrotation Zrotation
								JOINT LeftHand
								{
									OFFSET	-25.4342	-1.75765	1.81547
									CHANNELS 3  Xrotation Yrotation Zrotation
									End Site
									{
										OFFSET	-9.28223	-0.641455	0.662512
									}
								}
							}
						}
					}
					JOINT RightShoulder
					{
						OFFSET	4.67409	19.7783	-9.32654
						CHANNELS 3  Xrotation Yrotation Zrotation
						JOINT RightArm
						{
							OFFSET	10.1845	-2.79147	3.58132
							CHANNELS 3  Xrotation Yrotation Zrotation
							JOINT RightForeArm
							{
								OFFSET	31.5067	-1.43802	2.24891
								CHANNELS 3  Xrotation Yrotation Zrotation
								JOINT RightHand
								{
									OFFSET	25.4342	-1.75765	1.81547
									CHANNELS 3  Xrotation Yrotation Zrotation
									End Site
									{
										OFFSET	9.28223	-0.641455	0.662512
									}
								}
							}
						}
					}
				}
			}
		}
	}
	JOINT LeftUpLeg
	{
		OFFSET	-9.61129	-3.53534	-0.71049
		CHANNELS 3  Xrotation Yrotation Zrotation
		JOINT LeftLeg
		{
			OFFSET	-2.18601	-42.8339	-0.669588
			CHANNELS 3  Xrotation Yrotation Zrotation
			JOINT LeftFoot
			{
				OFFSET	-2.13734	-39.398	3.38822
				CHANNELS 3  Xrotation Yrotation Zrotation
				JOINT LeftToeBase
				{
					OFFSET	0	-4.79061	-12.7239
					CHANNELS 3  Xrotation Yrotation Zrotation
					End Site
					{
						OFFSET	0	-1.91625	-7.66498
					}
				}
			}
		}
	}
	JOINT RightUpLeg
	{
		OFFSET	9.61129	-3.53534	-0.71049
		CHANNELS 3  Xrotation Yrotation Zrotation
		JOINT RightLeg
		{
			OFFSET	2.18601	-42.8339	-0.669588
			CHANNELS 3  Xrotation Yrotation Zrotation
			JOINT RightFoot
			{
				OFFSET	2.13734	-39.398	3.38822
				CHANNELS 3  Xrotation Yrotation Zrotation
				JOINT RightToeBase
				{
					OFFSET	0	-4.79061	-12.7239
					CHANNELS 3  Xrotation Yrotation Zrotation
					End Site
					{
						OFFSET	0	-1.91625	-7.66498
					}
				}
			}
		}
	}
}
MOTION
Frames: 15
Frame Time: 0.020408
 -144.592 86.3772 -91.2952 32.4779 -71.9548 39.3416 180 -179.996 179.038 175.997 -179.991 178.397 175.872 -179.974 178.397 176.959 -179.996 179.038 179.534 179.997 179.679 2.17465 0.476812 -9.02594 0.757474 10.8685 -1.95053 174.642 -175.935 169.228 176.457 -143.322 -108.38 2.62209 -55.596 0.378079 -0 15.7028 18.4253 177.667 151.47 -174.929 39.3615 2.14435 4.20542 13.7547 38.8366 -7.01532 -0 -14.0788 -0.213023 27.0662 13.3739 -21.6057 114.764 170.46 179.976 5.0902 -0.0312454 11.499 177.288 180 -180 8.46881 9.1693 -16.6017 141.01 173.447 -179.919 21.727 0.102242 -2.36418 178.525 180 -180
 -143.509 86.5445 -91.8895 29.5246 -71.4267 36.6486 180 -179.999 178.991 176.188 -179.998 178.318 176.059 -179.995 178.318 177.072 -179.999 178.991 179.633 179.998 179.664 2.19604 0.00426673 -9.73668 0.78805 10.896 -2.16866 174.653 -176.729 169.314 176.014 -143.333 -109.51 3.27968 -57.5759 0.95382 -0 16.2137 19.3438 177.07 152.004 -173.626 41.424 4.30005 6.93907 13.8481 39.5627 -7.18295 -0 -13.1463 -0.293791 28.4143 12.648 -22.0746 119.555 170.679 -179.914 7.03645 -0.011448 11.4936 177.511 180 -180 7.58061 8.94502 -16.6123 142.153 174.985 -179.812 21.8852 0.0999549 -2.26368 178.453 180 -180
 -142.551 86.6988 -92.3206 27.5817 -71.1792 35.0378 180 -179.993 178.927 176.361 -179.986 178.212 176.237 -179.959 178.212 177.206 -179.993 178.927 179.645 179.998 179.642 2.05902 -0.165178 -9.72567 0.747595 10.5659 -2.18111 174.566 -177.357 169.192 175.691 -143.854 -111.592 4.17143 -59.8058 1.83773 -0 16.5981 20.4587 176.423 152.213 -172.212 42.6493 6.45529 9.22664 14.3479 40.8907 -7.85108 -0 -12.0243 -1.13302 29.3762 12.1777 -22.4284 126.44 171.031 -179.925 7.60301 -0.0196545 11.494 177.73 180 -180 6.46392 8.92443 -16.8908 143.322 176.623 -179.816 22.0659 0.146086 -2.03022 178.382 180 -180
 -142.041 86.7217 -92.7163 24.747 -70.3846 32.3559 180 -179.99 178.853 176.503 -179.98 178.089 176.41 -179.94 178.089 177.395 -179.99 178.853 179.474 179.996 179.618 1.42377 -0.409733 -9.74552 0.555803 10.0046 -2.19234 175.017 -178.325 170.179 175.661 -145.567 -113.176 4.78618 -61.1321 2.40018 -0 16.9126 21.4198 175.991 153.164 -171.266 43.8603 8.46763 11.6918 15.2549 43.1615 -8.79347 -0 -10.8204 -2.08213 30.0482 12.6768 -22.484 134.395 170.967 -179.917 6.98191 -0.00472528 11.4047 177.934 180 -180 5.77118 8.89223 -16.8729 144.234 178.528 -179.896 22.6234 0.160216 -1.75154 178.309 180 -180
 -141.164 86.7365 -93.5324 22.395 -69.884 29.8816 180 -180 178.788 176.662 -180 177.98 176.579 -180 177.98 177.526 -180 178.788 179.467 179.996 179.596 1.22479 -0.633469 -9.98713 0.503813 9.84198 -2.26693 175.739 -178.334 171.621 174.661 -147.201 -114.743 5.16467 -60.7518 2.82934 -0 17.106 22.5191 175.454 153.956 -170.089 45.058 10.4576 14.4913 16.1532 44.9994 -9.90024 -0 -9.72227 -3.22208 30.6872 12.969 -22.2289 139.406 170.888 179.82 5.02766 -0.0210249 11.3074 178.093 180 -180 4.83328 9.17906 -16.4411 145.104 -179.555 -179.818 23.3294 0.133269 -1.48965 178.23 180 -180
 -140.361 86.8138 -94.4127 21.3543 -69.5927 28.7799 2.90376e-05 0.00132531 -1.25515 176.762 179.997 177.908 176.693 179.992 177.908 177.635 179.999 178.745 179.402 179.996 179.582 0.910281 -0.812762 -10.3096 0.418191 9.80345 -2.35037 176.429 -177.107 172.918 173.936 -148.647 -116.41 5.5197 -60.3846 3.06839 -0 17.0891 23.5616 174.737 153.851 -168.509 45.7697 12.5307 16.9002 16.893 45.871 -10.7701 -0 -9.0417 -4.87804 31.6288 12.8075 -21.5465 142.225 170.803 179.703 2.00067 -0.0190558 11.1714 178.212 180 -180 3.96126 9.93895 -16.0286 145.846 -178.018 -179.85 23.337 0.119033 -1.27871 178.155 180 -180
 -139.6 86.9083 -95.2228 19.699 -69.0385 27.1333 1.13895e-06 5.01705e-05 -1.30048 176.85 180 177.833 176.82 180 177.833 177.811 180 178.7 179.159 179.994 179.567 0.119911 -0.973476 -10.4574 0.181396 9.44683 -2.37788 177.331 -176.615 174.695 173.579 -150.584 -117.298 5.8916 -59.5013 3.29572 -0 16.8421 24.5099 173.895 153.81 -166.644 46.2139 14.3155 19.2888 17.0928 45.1868 -10.8634 -0 -8.9581 -6.32433 32.4564 12.6349 -20.8104 144.438 171.405 -179.99 179.624 -179.95 -168.947 178.298 180 -180 3.296 10.7189 -15.9406 146.741 -176.568 -179.787 23.2826 0.0765045 -1.08909 178.09 180 -180
 -138.825 86.9575 -96.1146 18.5346 -68.4608 25.9233 7.89994e-05 0.00337308 -1.34165 176.925 179.993 177.764 176.912 179.98 177.764 177.912 179.997 178.658 179.064 179.993 179.553 179.73 -178.724 169.122 0.0771542 9.25845 -2.49693 177.941 -175.389 175.873 173.024 -152.607 -119.065 6.25492 -58.0059 3.5763 -0 16.406 25.6158 173.165 153.602 -165.02 46.7797 16.2803 21.4796 17.3101 44.3204 -10.7322 -0 -8.9417 -7.86493 32.9231 12.702 -20.047 146.076 172.15 179.93 178.048 -179.979 -169.139 178.35 180 -180 2.64385 11.6985 -15.6522 147.553 -175.561 -179.892 23.3947 0.0195899 -1.10002 178.034 180 -180
 -138.298 86.9838 -97.2167 16.7143 -67.4641 23.9943 0.000116812 0.00478119 -1.39955 176.974 179.99 177.667 177.009 179.971 177.667 178.083 179.995 178.6 178.756 179.99 179.534 178.765 -178.346 168.732 179.796 171.307 177.396 178.94 -173.767 177.852 172.918 -154.444 -119.845 6.72499 -56.559 3.88693 -0 15.8618 26.6012 172.81 153.372 -164.226 47.639 18.1582 23.5304 17.6092 43.8023 -10.7414 -0 -8.89456 -9.33584 33.4747 12.6547 -18.6902 146.876 173.005 -179.916 177.126 -179.975 -169.638 178.375 180 -180 2.21022 12.7826 -15.2517 148.321 -174.336 -179.717 23.6313 -0.0448383 -1.12427 177.987 180 -180
 -137.374 87.0014 -98.2575 15.9738 -66.5945 23.3786 0.000121219 0.00465112 -1.49292 177.018 179.991 177.512 177.057 179.972 177.512 178.124 179.995 178.507 178.745 179.989 179.502 178.658 -178.054 168.492 179.774 171.597 177.308 179.695 -171.405 179.373 172.257 -156.212 -120.651 7.07664 -54.5981 4.05013 -0 15.3899 27.6053 172.447 153.161 -163.412 48.8065 20.1046 25.5581 17.8618 43.2986 -10.769 -0 -8.80275 -10.5803 33.6706 12.7135 -17.8357 146.94 173.063 179.779 177.194 179.982 -170.469 178.378 180 -180 1.57394 13.8601 -15.2244 149.15 -173.357 -179.833 23.6635 -0.045325 -1.33607 177.946 180 -180
 -136.658 86.9677 -99.3849 15.2504 -65.7725 22.7858 0.000139259 0.00511584 -1.55927 177.043 179.99 177.401 177.099 179.969 177.401 178.191 179.995 178.441 178.635 179.988 179.48 178.234 -177.352 167.827 179.672 172.276 177.081 0.436732 -10.5206 0.907707 171.932 -158.059 -121.473 7.22373 -52.9134 3.98039 -0 14.9516 28.2056 172.412 153.284 -163.334 49.7993 22.2412 27.6988 18.6943 44.0784 -11.5432 -0 -8.55876 -11.9519 33.8229 12.7397 -16.8345 145.455 172.308 179.541 178.805 179.982 -171.8 178.369 180 -180 1.05112 14.7688 -15.2717 149.769 -172.389 -179.716 23.8148 -0.0392838 -1.61396 177.911 180 -180
 -135.295 86.8727 -100.925 15.0989 -64.85 22.6824 0.000221254 0.0078907 -1.60615 177.047 179.984 177.323 177.132 179.953 177.323 178.282 179.992 178.394 178.431 179.985 179.465 177.636 -176.879 167.749 179.496 173.258 177.011 1.19408 -12.7483 2.50999 170.967 -159.715 -121.8 7.15693 -50.8309 3.84084 -0 14.6073 28.605 172.394 153.768 -163.293 50.7082 24.1157 29.5207 19.9942 45.4978 -12.9023 -0 -7.75874 -13.3771 33.3482 12.447 -16.3344 141.985 171.129 179.511 2.19215 0.000663892 6.76451 178.347 180 -180 179.612 163.962 164.96 150.321 -171.6 -179.786 24.1016 -0.0325306 -2.01813 177.881 180 -180
 -133.793 86.5011 -102.624 16.3055 -64.1 23.6909 0.000221111 0.00761235 -1.66377 177.025 179.985 177.227 177.122 179.954 177.227 178.303 179.992 178.336 178.339 179.984 179.446 177.319 -176.087 167.189 179.425 174.2 176.789 1.40198 -15.1089 2.97662 171.123 -161.041 -121.147 6.78499 -48.3219 3.26993 -0 14.3086 28.7066 172.379 154.201 -163.26 51.2048 25.8262 30.995 21.3057 46.2517 -14.1306 -0 -7.03326 -15.0636 32.8269 12.2579 -16.0598 139.102 170.116 179.828 4.51492 -0.0121872 5.5908 178.31 180 -180 177.421 162.896 165.602 150.484 -170.975 179.974 25.2368 -0.0219271 -2.54651 177.855 180 -180
 -132.521 86.1374 -104.105 17.7559 -63.0378 25.0059 0.000237853 0.00792285 -1.71957 176.972 179.984 177.134 177.105 179.952 177.134 178.377 179.992 178.28 178.067 179.981 179.427 176.582 -175.815 166.987 179.207 174.806 176.717 1.40135 -17.21 2.99702 171.378 -161.801 -119.729 6.68792 -46.7491 3.13342 -0 14.0572 28.7525 172.16 154.74 -162.769 51.3417 27.091 32.0981 22.2506 46.1934 -14.8219 -0 -6.3099 -16.7448 31.8488 11.9509 -15.4884 136.693 169.38 179.715 6.71001 -0.0172813 4.63442 178.271 180 -180 175.413 162.169 166.027 150.697 -170.365 179.848 26.1503 -0.0192064 -3.07438 177.834 180 -180
 -131.69 86.0149 -105.837 18.3084 -63.2178 25.6512 0.000213169 0.00692956 -1.76199 177.017 179.986 177.063 177.181 179.958 177.063 178.499 179.993 178.238 177.867 179.978 179.413 175.961 -175.648 166.828 179.022 175.232 176.665 1.40998 -18.6161 3.02788 171.694 -162.716 -118.585 6.38539 -44.8151 2.67934 -0 13.9339 28.5603 172.035 155.665 -162.495 51.2384 27.9156 32.8254 23.1869 46.0727 -15.4174 -0 -5.53466 -18.4197 30.6366 11.578 -14.7258 134.808 168.822 179.639 9.35395 -0.0218597 3.86172 178.237 180 -180 173.638 161.606 167.045 151.841 -169.901 179.739 26.2722 0.0159433 -3.65377 177.815 180 -180
